<svg xmlns="http://www.w3.org/2000/svg" width="2563" height="694" viewBox="0 0 2563 694" fill="none"><path d="M495.121 179V179.187M495.121 263.239V263.427M495.121 338.119V338.306" stroke="#F1ECE2" stroke-width="56.1594" stroke-miterlimit="10" stroke-linecap="round" stroke-linejoin="round"/><path d="M495.121 413.002V413.268" stroke="#F1ECE2" stroke-width="37.4396" stroke-miterlimit="10" stroke-linecap="round" stroke-linejoin="round"/><path d="M495.121 478.523V478.789" stroke="#F1ECE2" stroke-width="28.0797" stroke-miterlimit="10" stroke-linecap="round" stroke-linejoin="round"/><path d="M495.121 534.676V534.942" stroke="#F1ECE2" stroke-width="18.7198" stroke-miterlimit="10" stroke-linecap="round" stroke-linejoin="round"/><path d="M336 263.241V263.428M654.251 263.241V263.428" stroke="#F1ECE2" stroke-width="56.1594" stroke-miterlimit="10" stroke-linecap="round" stroke-linejoin="round"/><path d="M654.251 338.125V338.313M336 338.125V338.313" stroke="#F1ECE2" stroke-width="37.4396" stroke-miterlimit="10" stroke-linecap="round" stroke-linejoin="round"/><path d="M654.242 394.283V394.549" stroke="#F1ECE2" stroke-width="28.0797" stroke-miterlimit="10" stroke-linecap="round" stroke-linejoin="round"/><path d="M654.242 450.436V450.702" stroke="#F1ECE2" stroke-width="18.7198" stroke-miterlimit="10" stroke-linecap="round" stroke-linejoin="round"/><path d="M336 394.28V394.546" stroke="#F1ECE2" stroke-width="28.0797" stroke-miterlimit="10" stroke-linecap="round" stroke-linejoin="round"/><path d="M336 450.436V450.702" stroke="#F1ECE2" stroke-width="18.7198" stroke-miterlimit="10" stroke-linecap="round" stroke-linejoin="round"/><path d="M416.491 300.678V300.865M415.555 222.055V222.242M573.745 300.678V300.865M574.681 222.055V222.242" stroke="#F1ECE2" stroke-width="56.1594" stroke-miterlimit="10" stroke-linecap="round" stroke-linejoin="round"/><path d="M416.508 375.56V375.826" stroke="#F1ECE2" stroke-width="37.4396" stroke-miterlimit="10" stroke-linecap="round" stroke-linejoin="round"/><path d="M416.508 431.728V431.994" stroke="#F1ECE2" stroke-width="28.0797" stroke-miterlimit="10" stroke-linecap="round" stroke-linejoin="round"/><path d="M416.508 487.874V488.14" stroke="#F1ECE2" stroke-width="18.7198" stroke-miterlimit="10" stroke-linecap="round" stroke-linejoin="round"/><path d="M573.738 375.56V375.826" stroke="#F1ECE2" stroke-width="37.4396" stroke-miterlimit="10" stroke-linecap="round" stroke-linejoin="round"/><path d="M573.738 431.728V431.994" stroke="#F1ECE2" stroke-width="28.0797" stroke-miterlimit="10" stroke-linecap="round" stroke-linejoin="round"/><path d="M573.738 487.874V488.14" stroke="#F1ECE2" stroke-width="18.7198" stroke-miterlimit="10" stroke-linecap="round" stroke-linejoin="round"/><path d="M1607.96 483.543C1620.05 483.432 1629.72 474.118 1629.57 462.739C1629.42 451.36 1619.49 442.224 1607.41 442.335C1595.32 442.445 1585.64 451.759 1585.8 463.138C1585.95 474.517 1595.87 483.653 1607.96 483.543Z" fill="#F1ECE2"/><path d="M1771.19 325.902V232.088H1817.23V477.422H1771.19V451.249C1766.25 461.445 1759.84 469.118 1751.96 474.269C1744.18 479.42 1734.98 481.995 1724.36 481.995C1704.18 481.995 1688.52 473.901 1677.38 457.714C1666.24 441.526 1660.67 418.717 1660.67 389.285C1660.67 359.433 1666.29 336.518 1677.54 320.541C1688.89 304.564 1705.02 296.575 1725.94 296.575C1735.4 296.575 1743.86 299.045 1751.33 303.986C1758.89 308.821 1765.52 316.126 1771.19 325.902ZM1706.86 389.6C1706.86 406.629 1709.7 419.978 1715.38 429.648C1721.05 439.319 1728.88 444.154 1738.87 444.154C1748.86 444.154 1756.74 439.319 1762.52 429.648C1768.3 419.978 1771.19 406.629 1771.19 389.6C1771.19 372.572 1768.3 359.223 1762.52 349.552C1756.74 339.882 1748.86 335.047 1738.87 335.047C1728.88 335.047 1721.05 339.882 1715.38 349.552C1709.7 359.223 1706.86 372.572 1706.86 389.6ZM2014.79 468.751C2004.07 473.165 1993.14 476.476 1982 478.684C1970.86 480.891 1959.08 481.995 1946.68 481.995C1917.14 481.995 1894.54 474.111 1878.88 458.344C1863.32 442.472 1855.55 419.663 1855.55 389.916C1855.55 361.115 1863.06 338.358 1878.09 321.645C1893.12 304.932 1913.62 296.575 1939.58 296.575C1965.76 296.575 1986.04 304.354 2000.44 319.91C2014.95 335.362 2022.2 357.173 2022.2 385.343V404.106H1902.53C1902.64 417.981 1906.74 428.335 1914.83 435.167C1922.92 441.999 1935.01 445.415 1951.09 445.415C1961.71 445.415 1972.17 443.891 1982.47 440.843C1992.77 437.795 2003.55 432.959 2014.79 426.337V468.751ZM1975.69 369.419C1975.48 357.225 1972.33 348.028 1966.23 341.826C1960.24 335.52 1951.36 332.366 1939.58 332.366C1928.97 332.366 1920.51 335.625 1914.2 342.142C1907.89 348.554 1904.16 357.698 1903 369.576L1975.69 369.419ZM2217.4 300.832L2161.27 477.422H2104.35L2048.22 300.832H2095.05L2132.73 438.636L2170.57 300.832H2217.4Z" fill="#F1ECE2"/><path d="M904.035 374.145C880.594 365.21 864.722 355.855 856.417 346.079C848.113 336.198 843.961 322.954 843.961 306.345C843.961 285.007 850.794 268.24 864.459 256.047C878.124 243.854 896.887 237.757 920.749 237.757C931.576 237.757 942.403 239.018 953.23 241.541C964.057 243.959 974.779 247.585 985.395 252.42V297.831C975.409 290.788 965.266 285.427 954.964 281.748C944.663 278.069 934.467 276.229 924.375 276.229C913.128 276.229 904.508 278.489 898.517 283.009C892.525 287.529 889.529 293.994 889.529 302.403C889.529 308.921 891.684 314.334 895.994 318.644C900.409 322.848 909.554 327.526 923.429 332.677L943.454 340.245C962.375 347.183 976.303 356.381 985.238 367.838C994.173 379.296 998.64 393.75 998.64 411.199C998.64 434.955 991.597 452.72 977.512 464.493C963.531 476.161 942.35 481.995 913.969 481.995C902.301 481.995 890.58 480.576 878.807 477.738C867.139 475.005 855.839 470.905 844.907 465.439V417.348C857.311 426.178 869.294 432.748 880.857 437.058C892.525 441.367 904.035 443.522 915.388 443.522C926.846 443.522 935.728 440.947 942.035 435.796C948.342 430.54 951.495 423.235 951.495 413.879C951.495 406.837 949.393 400.687 945.188 395.431C940.984 390.071 934.887 385.866 926.898 382.817L904.035 374.145ZM1025.94 283.009V242.014H1166.11V283.009H1119.28V436.427H1166.11V477.422H1025.94V436.427H1072.77V283.009H1025.94ZM1294.48 477.422H1247.96V282.694H1188.2V242.014H1354.23V282.694H1294.48V477.422ZM1446.33 284.586L1424.42 380.925H1468.41L1446.33 284.586ZM1417.95 242.014H1474.87L1538.42 477.422H1491.9L1477.4 419.24H1415.11L1400.92 477.422H1354.41L1417.95 242.014Z" fill="#F1ECE2"/><path d="M1607.96 483.543C1620.05 483.432 1629.72 474.118 1629.57 462.739C1629.42 451.36 1619.49 442.224 1607.41 442.335C1595.32 442.445 1585.64 451.759 1585.8 463.138C1585.95 474.517 1595.87 483.653 1607.96 483.543Z" fill="#F1ECE2"/><path d="M1771.19 325.902V232.088H1817.23V477.422H1771.19V451.249C1766.25 461.445 1759.84 469.118 1751.96 474.269C1744.18 479.42 1734.98 481.995 1724.36 481.995C1704.18 481.995 1688.52 473.901 1677.38 457.714C1666.24 441.526 1660.67 418.717 1660.67 389.285C1660.67 359.433 1666.29 336.518 1677.54 320.541C1688.89 304.564 1705.02 296.575 1725.94 296.575C1735.4 296.575 1743.86 299.045 1751.33 303.986C1758.89 308.821 1765.52 316.126 1771.19 325.902ZM1706.86 389.6C1706.86 406.629 1709.7 419.978 1715.38 429.648C1721.05 439.319 1728.88 444.154 1738.87 444.154C1748.86 444.154 1756.74 439.319 1762.52 429.648C1768.3 419.978 1771.19 406.629 1771.19 389.6C1771.19 372.572 1768.3 359.223 1762.52 349.552C1756.74 339.882 1748.86 335.047 1738.87 335.047C1728.88 335.047 1721.05 339.882 1715.38 349.552C1709.7 359.223 1706.86 372.572 1706.86 389.6ZM2014.79 468.751C2004.07 473.165 1993.14 476.476 1982 478.684C1970.86 480.891 1959.08 481.995 1946.68 481.995C1917.14 481.995 1894.54 474.111 1878.88 458.344C1863.32 442.472 1855.55 419.663 1855.55 389.916C1855.55 361.115 1863.06 338.358 1878.09 321.645C1893.12 304.932 1913.62 296.575 1939.58 296.575C1965.76 296.575 1986.04 304.354 2000.44 319.91C2014.95 335.362 2022.2 357.173 2022.2 385.343V404.106H1902.53C1902.64 417.981 1906.74 428.335 1914.83 435.167C1922.92 441.999 1935.01 445.415 1951.09 445.415C1961.71 445.415 1972.17 443.891 1982.47 440.843C1992.77 437.795 2003.55 432.959 2014.79 426.337V468.751ZM1975.69 369.419C1975.48 357.225 1972.33 348.028 1966.23 341.826C1960.24 335.52 1951.36 332.366 1939.58 332.366C1928.97 332.366 1920.51 335.625 1914.2 342.142C1907.89 348.554 1904.16 357.698 1903 369.576L1975.69 369.419ZM2217.4 300.832L2161.27 477.422H2104.35L2048.22 300.832H2095.05L2132.73 438.636L2170.57 300.832H2217.4Z" fill="#F1ECE2"/><path d="M904.035 374.145C880.594 365.21 864.722 355.855 856.417 346.079C848.113 336.198 843.961 322.954 843.961 306.345C843.961 285.007 850.794 268.24 864.459 256.047C878.124 243.854 896.887 237.757 920.749 237.757C931.576 237.757 942.403 239.018 953.23 241.541C964.057 243.959 974.779 247.585 985.395 252.42V297.831C975.409 290.788 965.266 285.427 954.964 281.748C944.663 278.069 934.467 276.229 924.375 276.229C913.128 276.229 904.508 278.489 898.517 283.009C892.525 287.529 889.529 293.994 889.529 302.403C889.529 308.921 891.684 314.334 895.994 318.644C900.409 322.848 909.554 327.526 923.429 332.677L943.454 340.245C962.375 347.183 976.303 356.381 985.238 367.838C994.173 379.296 998.64 393.75 998.64 411.199C998.64 434.955 991.597 452.72 977.512 464.493C963.531 476.161 942.35 481.995 913.969 481.995C902.301 481.995 890.58 480.576 878.807 477.738C867.139 475.005 855.839 470.905 844.907 465.439V417.348C857.311 426.178 869.294 432.748 880.857 437.058C892.525 441.367 904.035 443.522 915.388 443.522C926.846 443.522 935.728 440.947 942.035 435.796C948.342 430.54 951.495 423.235 951.495 413.879C951.495 406.837 949.393 400.687 945.188 395.431C940.984 390.071 934.887 385.866 926.898 382.817L904.035 374.145ZM1025.94 283.009V242.014H1166.11V283.009H1119.28V436.427H1166.11V477.422H1025.94V436.427H1072.77V283.009H1025.94ZM1294.48 477.422H1247.96V282.694H1188.2V242.014H1354.23V282.694H1294.48V477.422ZM1446.33 284.586L1424.42 380.925H1468.41L1446.33 284.586ZM1417.95 242.014H1474.87L1538.42 477.422H1491.9L1477.4 419.24H1415.11L1400.92 477.422H1354.41L1417.95 242.014Z" fill="#F1ECE2"/></svg>